#!OML:ASF X:\für Bonn\!DataBase\2005_08_11_Bastian_Final\c3d\Bastian.ASF
:FULLY-SPECIFIED
:DEGREES
241
root -0.153312 17.1936 -5.66983 549.194 -131.482 -80.3472
lowerback 39.7174 -7.31452 14.2534
upperback 4.84206 -2.07399 4.80901
thorax -13.8716 -1.34152 -1.05055
lowerneck -39.3135 -2.1429 1.27919
upperneck -7.30701 -4.51376 -0.0805153
head 3.01779 -2.91885 -0.811937
rclavicle 6.67916e-014 -3.18055e-014
rhumerus 64.4196 -10.8042 -11.8856
rradius 42.5775
rwrist -117.902
rhand -58.9311 -63.928
rfingers 7.12502
rthumb -31.1337 -268.696
lclavicle 6.67916e-014 -3.18055e-014
lhumerus 44.5846 45.5022 -24.4724
lradius 43.018
lwrist 73.2003
lhand -34.2605 -34.8982
lfingers 7.12502
lthumb -7.43106 -5.04876
rfemur -40.3029 -8.49264 -24.7359
rtibia 58.3748
rfoot -24.9985 -21.6893
rtoes 45.6223
lfemur 4.92714 -0.112347 19.7883
ltibia 40.0171
lfoot -19.5282 10.661
ltoes -6.49355
242
root -0.0306044 17.1368 -5.85438 549.542 -132.817 -82.0963
lowerback 40.3557 -7.6544 14.6017
upperback 5.15754 -2.19277 5.01045
thorax -13.7011 -1.36949 -0.916561
lowerneck -38.958 -2.07235 1.5117
upperneck -7.44676 -4.4599 -0.648926
head 2.92245 -2.93003 -1.02538
rclavicle 1.59028e-014 -4.77083e-014
rhumerus 63.9967 -11.4464 -12.377
rradius 42.6607
rwrist -117.976
rhand -58.8614 -64.8047
rfingers 7.12502
rthumb -31.0672 -267.807
lclavicle 1.59028e-014 -4.77083e-014
lhumerus 40.8792 44.0773 -26.6355
lradius 43.6754
lwrist 75.1259
lhand -34.7427 -34.5099
lfingers 7.12502
lthumb -7.89644 -4.67734
rfemur -41.8758 -9.67847 -25.5843
rtibia 59.3738
rfoot -24.976 -21.3465
rtoes 45.5742
lfemur 5.292 -0.233548 19.9397
ltibia 38.6169
lfoot -19.2999 10.8874
ltoes -8.27466
243
root 0.0960846 17.0704 -6.04387 549.752 -134.245 -83.7289
lowerback 40.9178 -7.99879 14.9278
upperback 5.48066 -2.34076 5.18138
thorax -13.4952 -1.40605 -0.794436
lowerneck -38.5623 -2.00577 1.77875
upperneck -7.5933 -4.4246 -1.198
head 2.82178 -2.94745 -1.23856
rclavicle 3.02153e-014 -5.08889e-014
rhumerus 63.4494 -12.057 -12.8106
rradius 42.7699
rwrist -118.08
rhand -58.7507 -65.5795
rfingers 7.12502
rthumb -30.9617 -267.012
lclavicle 3.02153e-014 -5.08889e-014
lhumerus 37.0336 42.0991 -29.0694
lradius 44.3465
lwrist 77.3746
lhand -35.0607 -33.5855
lfingers 7.12502
lthumb -8.20333 -3.76478
rfemur -43.3069 -10.8881 -26.4325
rtibia 60.3348
rfoot -25.0563 -20.8751
rtoes 45.7398
lfemur 5.54245 -0.301031 20.0873
ltibia 37.3653
lfoot -19.2447 11.0199
ltoes -9.37755
244
root 0.228222 16.9977 -6.23774 549.81 -135.683 -85.2984
lowerback 41.5091 -8.32016 15.1926
upperback 5.82446 -2.47723 5.36309
thorax -13.268 -1.43263 -0.634323
lowerneck -38.1831 -1.9789 1.96608
upperneck -7.69472 -4.40871 -1.65388
head 2.74113 -2.96242 -1.41078
rclavicle 1.43125e-014 -1.59028e-013
rhumerus 62.8052 -12.6117 -13.0155
rradius 42.9016
rwrist -118.404
rhand -58.6719 -66.321
rfingers 7.12502
rthumb -30.8866 -266.256
lclavicle 1.43125e-014 -1.59028e-013
lhumerus 33.3075 39.675 -31.3747
lradius 44.9493
lwrist 79.6967
lhand -34.9594 -32.2858
lfingers 7.12502
lthumb -8.10557 -2.46125
rfemur -44.6568 -12.0619 -27.2613
rtibia 61.2153
rfoot -24.9381 -20.3806
rtoes 45.7683
lfemur 5.78094 -0.314108 20.2404
ltibia 36.3229
lfoot -19.2559 11.0336
ltoes -9.39214
245
root 0.368616 16.9164 -6.4377 549.777 -137.095 -86.8794
lowerback 42.1488 -8.61107 15.4341
upperback 6.18023 -2.57855 5.53143
thorax -13.033 -1.44308 -0.490773
lowerneck -37.7141 -1.9664 2.15004
upperneck -7.85918 -4.40867 -2.07936
head 2.63185 -2.98216 -1.57118
rclavicle -1.04958e-013 3.18055e-015
rhumerus 62.0477 -13.1116 -13.1281
rradius 43.0473
rwrist -118.828
rhand -58.5766 -66.8753
rfingers 7.12502
rthumb -30.7957 -265.684
lclavicle -1.04958e-013 3.18055e-015
lhumerus 29.83 36.7753 -33.5491
lradius 45.4553
lwrist 81.9227
lhand -34.6659 -30.7795
lfingers 7.12502
lthumb -7.8223 -0.944206
rfemur -45.9734 -13.1811 -28.0047
rtibia 61.9769
rfoot -24.6913 -19.8684
rtoes 45.9084
lfemur 6.01361 -0.298477 20.447
ltibia 35.551
lfoot -19.3807 10.7645
ltoes -9.00944
246
root 0.507151 16.8175 -6.64076 549.596 -138.438 -88.4338
lowerback 42.848 -8.81212 15.5289
upperback 6.5707 -2.62487 5.72293
thorax -12.766 -1.42401 -0.2769
lowerneck -37.1727 -1.99875 2.23785
upperneck -8.06633 -4.4285 -2.37936
head 2.50504 -2.99858 -1.67452
rclavicle -1.82882e-013 4.45278e-014
rhumerus 61.2655 -13.5756 -13.4221
rradius 43.176
rwrist -119.085
rhand -58.474 -67.439
rfingers 7.12502
rthumb -30.6979 -265.102
lclavicle -1.82882e-013 4.45278e-014
lhumerus 26.667 33.3839 -35.5712
lradius 45.8009
lwrist 83.9505
lhand -34.2305 -29.286
lfingers 7.12502
lthumb -7.40209 0.564484
rfemur -47.2242 -14.175 -28.6256
rtibia 62.5928
rfoot -24.2415 -19.4872
rtoes 45.8168
lfemur 6.18656 -0.096765 20.6253
ltibia 35.1175
lfoot -19.3807 10.4848
ltoes -10.7978
247
root 0.640901 16.7024 -6.84375 549.321 -139.766 -89.9797
lowerback 44.3414 -9.24458 15.8912
upperback 6.0121 -2.6033 5.53909
thorax -12.404 -1.41377 -0.12534
lowerneck -36.5295 -2.04215 2.35455
upperneck -8.26125 -4.47004 -2.61871
head 2.37194 -3.01726 -1.76205
rclavicle 8.5875e-014 -4.45278e-014
rhumerus 60.4265 -13.9183 -13.8542
rradius 43.2724
rwrist -119.359
rhand -58.3766 -67.7785
rfingers 7.12502
rthumb -30.605 -264.745
lclavicle 8.5875e-014 -4.45278e-014
lhumerus 23.911 29.5741 -37.3707
lradius 46.0533
lwrist 85.6387
lhand -33.7494 -27.8848
lfingers 7.12502
lthumb -6.93767 1.98147
rfemur -48.4769 -15.1175 -29.0316
rtibia 63.0864
rfoot -23.6549 -19.5741
rtoes 45.3493
lfemur 6.23323 0.166283 20.7242
ltibia 35.1041
lfoot -19.3445 10.4289
ltoes -13.0364
